# xmcd
#
# Track frame offsets:
#	150
#	31713
#	64648
#	99765
#
# Disc length: 1738 seconds
#
# Revision: 0
# Processed by: cddbd v1.5.2PL0 Copyright (c) Steve Scherf et al.
# Submitted via: EZCDAudioConverter 1.3.4.1
#
DISCID=2006c804
DTITLE=Tears For Fears - Call Me Mellow
DYEAR=1900
DGENRE=
TTITLE0=Call Me Mellow [Mauve Club Mix]
TTITLE1=Call Me Mellow [Tin Tin Out Coney Island Dub]
TTITLE2=Call Me Mellow [Tin Tin Out Coney Island Club Mix]
TTITLE3=Call Me Mellow [Mauve Dub]
EXTD=
EXTT0=
EXTT1=
EXTT2=
EXTT3=
PLAYORDER=
